<svg width="24" height="24" viewBox="0 0 24 24" fill="none" xmlns="http://www.w3.org/2000/svg">
<g clip-path="url(#clip0_124_2995)">
<path fill-rule="evenodd" clip-rule="evenodd" d="M12.4363 2.29343C12.6335 2.39076 12.7931 2.55039 12.8904 2.7476L15.2877 7.60507C15.4334 7.90021 15.715 8.10478 16.0407 8.15211L21.4012 8.93104C21.9478 9.01046 22.3264 9.5179 22.247 10.0644C22.2154 10.2821 22.1129 10.4832 21.9554 10.6367L18.0765 14.4177C17.8408 14.6475 17.7333 14.9785 17.7889 15.3029L18.7046 20.6418C18.798 21.1861 18.4324 21.703 17.888 21.7964C17.6713 21.8336 17.4483 21.7983 17.2536 21.6959L12.459 19.1753C12.1677 19.0221 11.8197 19.0221 11.5284 19.1753L6.73375 21.6959C6.2449 21.9529 5.64028 21.765 5.38327 21.2761C5.28094 21.0815 5.24562 20.8585 5.2828 20.6418L6.19849 15.3029C6.25412 14.9785 6.14658 14.6475 5.91089 14.4177L2.03197 10.6367C1.63649 10.2512 1.62839 9.61812 2.01389 9.22264C2.1674 9.06515 2.36855 8.96267 2.58618 8.93104L7.94672 8.15211C8.27243 8.10478 8.554 7.90021 8.69966 7.60507L11.097 2.7476C11.3414 2.25234 11.941 2.04901 12.4363 2.29343Z" fill="#ffaf00"/>
</g>
<defs>
<clipPath id="clip0_124_2995">
<rect width="24" height="24" fill="white"/>
</clipPath>
</defs>
</svg>
